HIERARCHY
ROOT Hips
{
	OFFSET 0.00000 0.00000 0.00000
	CHANNELS 6 Xposition Yposition Zposition Zrotation Yrotation Xrotation 
	JOINT LHipJoint
	{
		OFFSET 0 0 0
		CHANNELS 3 Zrotation Yrotation Xrotation
		JOINT LeftHip
		{
			OFFSET 1.28858 -1.83292 1.03970
			CHANNELS 3 Zrotation Yrotation Xrotation
			JOINT LeftKnee
			{
				OFFSET 2.47846 -6.80952 0.00000
				CHANNELS 3 Zrotation Yrotation Xrotation
				JOINT LeftAnkle
				{
					OFFSET 2.75274 -7.56311 0.00000
					CHANNELS 3 Zrotation Yrotation Xrotation
					JOINT LeftToe
					{
						OFFSET 0.12848 -0.35301 1.68223
						CHANNELS 3 Zrotation Yrotation Xrotation
						End Site
						{
							OFFSET 0.00000 -0.00000 0.87311
						}
					}
				}
			}
		}
	}
	JOINT RHipJoint
	{
		OFFSET 0 0 0
		CHANNELS 3 Zrotation Yrotation Xrotation
		JOINT RightHip
		{
			OFFSET -1.31183 -1.83292 1.03970
			CHANNELS 3 Zrotation Yrotation Xrotation
			JOINT RightKnee
			{
				OFFSET -2.44740 -6.72417 0.00000
				CHANNELS 3 Zrotation Yrotation Xrotation
				JOINT RightAnkle
				{
					OFFSET -2.67343 -7.34519 0.00000
					CHANNELS 3 Zrotation Yrotation Xrotation
					JOINT RightToe
					{
						OFFSET -0.16914 -0.46471 1.77626
						CHANNELS 3 Zrotation Yrotation Xrotation
						End Site
						{
							OFFSET -0.00000 -0.00000 0.92777
						}
					}
				}
			}
		}
	}
	JOINT lowerback
	{
		OFFSET 0 0 0
		CHANNELS 3 Zrotation Yrotation Xrotation
		JOINT Chest
		{
			OFFSET 0.01249 2.14252 0.03842
			CHANNELS 3 Zrotation Yrotation Xrotation
			JOINT Chest2
			{
				OFFSET -0.02957 2.14199 -0.03751
				CHANNELS 3 Zrotation Yrotation Xrotation
				JOINT lowerneck
				{
					OFFSET 0 0 0
					CHANNELS 3 Zrotation Yrotation Xrotation
					JOINT Neck
					{
						OFFSET -0.01678 1.65709 -0.05476
						CHANNELS 3 Zrotation Yrotation Xrotation
						JOINT Head
						{
							OFFSET 0.07912 1.58331 -0.11843
							CHANNELS 3 Zrotation Yrotation Xrotation
							End Site
							{
								OFFSET 0.03298 1.73940 -0.04271
							}
						}
					}
				}
				JOINT LeftCollar
				{
					OFFSET 0 0 0
					CHANNELS 3 Zrotation Yrotation Xrotation
					JOINT LeftShoulder
					{
						OFFSET 3.39556 1.16496 0.08673
CHANNELS 3 Zrotation Xrotation Yrotation
						JOINT LeftElbow
						{
OFFSET 0 -5.239100 -0.000000
CHANNELS 3 Zrotation Xrotation Yrotation
							JOINT LeftWrist
							{
OFFSET 0 -3.314670 0.000000
CHANNELS 3 Zrotation Xrotation Yrotation
								JOINT lhand
								{
									OFFSET 0 0 0
CHANNELS 3 Zrotation Xrotation Yrotation
									JOINT LFingers
									{
OFFSET 0 -0.965900 0.000000
CHANNELS 3 Zrotation Xrotation Yrotation
										End Site
										{
OFFSET 0 -0.778730 0.000000
										}
									}
								}
								JOINT LThumb
								{
OFFSET 0 0.000000 0.000000
CHANNELS 3 Zrotation Xrotation Yrotation
									End Site
									{
OFFSET 0 -0.790620 0.790620
									}
								}
							}
						}
					}
				}
				JOINT RightCollar
				{
					OFFSET 0 0 0
					CHANNELS 3 Zrotation Yrotation Xrotation
					JOINT RightShoulder
					{
						OFFSET -3.27193 1.31331 0.33940
CHANNELS 3 Zrotation Xrotation Yrotation
						JOINT RightElbow
						{
OFFSET 0 -5.302520 0.000000
CHANNELS 3 Zrotation Xrotation Yrotation
							JOINT RightWrist
							{
OFFSET 0 -3.678750 0.000000
CHANNELS 3 Zrotation Xrotation Yrotation
								JOINT rhand
								{
									OFFSET 0 0 0
CHANNELS 3 Zrotation Xrotation Yrotation
									JOINT RFingers
									{
OFFSET 0 -0.594810 0.000000
CHANNELS 3 Zrotation Xrotation Yrotation
										End Site
										{
OFFSET 0 -0.479550 0.000000
										}
									}
								}
								JOINT RThumb
								{
OFFSET 0 0.000000 0.000000
CHANNELS 3 Zrotation Xrotation Yrotation
									End Site
									{
OFFSET 0 -0.486870 0.486870
									}
								}
							}
						}
					}
				}
			}
		}
	}
}
MOTION
Frames: 9
Frame Time: 0.008333333333333333
8.585421 6.177324 14.677253 4.128134 4.417353 11.263166 0.000000 0.000000 0.000000 -2.844007 17.665837 -126.023320 2.107332 9.085739 26.064134 41.586079 27.662117 171.660692 3.242084 11.077003 32.540026 0.000000 0.000000 0.000000 3.937177 -17.198088 -128.504734 -0.806288 -5.729488 16.001921 -34.930708 -2.545349 137.721501 -0.112827 2.163153 -5.956852 3.289299 -0.048028 41.039935 -4.594242 0.855989 12.468381 -6.949783 0.710402 -5.741433 5.059533 14.067589 1.460311 -19.510577 16.886788 -24.873645 -7.671953 9.808145 -5.438456 0.000000 0.000000 0.000000 -8.618587 -46.657951 -73.251956 18.507273 -28.801802 4.791162 58.002857 -33.503174 32.185963 0.000000 0.000000 0.000000 -7.125000 0.000000 0.000000 13.790836 -18.722708 17.904863 0.000000 0.000000 0.000000 1.135783 -46.760651 28.002682 -25.578882 -36.789588 -8.634316 -38.580542 54.304981 58.811770 0.000000 0.000000 0.000000 7.125000 0.000000 0.000000 128.999966 -83.215746 134.486128
8.582565 6.115296 14.762824 4.119695 5.030681 10.857763 0.000000 0.000000 0.000000 -2.250167 17.093763 -125.363651 2.008695 8.884164 25.433637 41.588913 27.864836 171.405861 3.125390 10.895005 31.926824 0.000000 0.000000 0.000000 4.342361 -17.420655 -128.003003 -0.719240 -5.419425 15.108898 -34.655908 -1.962642 136.409109 -0.153975 2.527357 -6.965614 3.991833 -0.186549 41.056483 -4.638741 0.968570 12.612462 -7.408332 0.796701 -5.560972 5.324757 14.384997 1.676748 -19.337360 17.441859 -24.262997 -7.601673 10.033027 -5.209330 0.000000 0.000000 0.000000 -9.347416 -46.298323 -74.690597 18.543315 -28.847316 4.808541 58.147877 -33.671498 32.422620 0.000000 0.000000 0.000000 -7.125000 0.000000 0.000000 13.778998 -19.091604 17.942183 0.000000 0.000000 0.000000 1.812814 -46.945146 26.568399 -25.305701 -36.514782 -8.471144 -39.923702 55.314477 58.958527 0.000000 0.000000 0.000000 7.125000 0.000000 0.000000 134.511250 -83.063138 139.677583
8.590671 6.106978 14.827386 4.238801 5.464641 10.689711 0.000000 0.000000 0.000000 -1.842411 16.434160 -124.713579 1.970543 8.804401 25.185215 41.515745 27.631519 171.087124 2.723210 10.230092 29.727734 0.000000 0.000000 0.000000 4.573052 -17.789384 -127.595277 -0.685867 -5.294759 14.751344 -34.542477 -1.261095 135.768388 -0.223003 3.036965 -8.381810 4.428277 -0.310155 40.838919 -4.735976 0.984385 12.830702 -7.742605 0.840333 -5.244743 5.539492 14.452000 1.757919 -18.821957 17.686788 -23.550659 -7.414465 10.069745 -5.010050 0.000000 0.000000 0.000000 -10.083520 -46.359237 -75.686619 18.307820 -28.549462 4.695463 58.253680 -33.847123 32.682534 0.000000 0.000000 0.000000 -7.125000 0.000000 0.000000 13.738010 -19.458656 17.938449 0.000000 0.000000 0.000000 2.365169 -47.086802 25.819616 -25.598988 -36.809792 -8.646341 -42.043167 56.529117 59.434997 0.000000 0.000000 0.000000 7.125000 0.000000 0.000000 142.834562 -82.460678 147.627978
8.605710 6.146898 14.873133 4.346700 5.595095 10.729712 0.000000 0.000000 0.000000 -1.527642 15.988409 -124.124369 1.981462 8.827409 25.256926 41.461896 27.235896 171.146522 2.448468 9.742927 28.148788 0.000000 0.000000 0.000000 4.387742 -18.148805 -127.078068 -0.699248 -5.345067 14.895349 -34.628325 -0.945533 136.055365 -0.281559 3.411725 -9.427318 4.524965 -0.342498 40.495324 -4.788962 0.975317 13.074849 -7.838161 0.862809 -4.870858 5.531674 14.343637 1.742243 -18.205894 17.662856 -22.963197 -7.183662 9.984196 -4.900863 0.000000 0.000000 0.000000 -10.771533 -46.653351 -75.997585 17.904632 -28.034608 4.504513 58.377977 -33.882754 32.889954 0.000000 0.000000 0.000000 -7.125000 0.000000 0.000000 13.724805 -19.778390 17.965155 0.000000 0.000000 0.000000 2.600667 -47.191345 25.756865 -26.185176 -37.390565 -9.000036 -43.524054 57.729645 60.392906 0.000000 0.000000 0.000000 7.125000 0.000000 0.000000 147.912214 -81.396721 152.771423
8.622597 6.227900 14.901202 4.276198 5.421709 10.886881 0.000000 0.000000 0.000000 -1.177046 15.896985 -123.544994 2.027451 8.923014 25.554815 41.428563 26.730133 171.525821 2.234078 9.335420 26.851988 0.000000 0.000000 0.000000 3.820875 -18.358396 -126.275471 -0.752640 -5.540623 15.457212 -34.868575 -1.384700 137.188522 -0.280081 3.403300 -9.403716 4.462669 -0.290779 40.213655 -4.800900 1.006064 13.287131 -7.821447 0.892402 -4.547110 5.423160 14.060411 1.662067 -17.665255 17.353571 -22.597025 -6.984574 9.777624 -4.882185 0.000000 0.000000 0.000000 -11.374228 -47.103645 -75.830310 17.408457 -27.392620 4.273787 58.447463 -33.770816 33.020839 0.000000 0.000000 0.000000 -7.125000 0.000000 0.000000 13.711567 -19.973429 17.974075 0.000000 0.000000 0.000000 2.497090 -47.531991 26.053559 -26.458955 -37.658310 -9.166672 -43.487072 58.462261 61.826479 0.000000 0.000000 0.000000 7.125000 0.000000 0.000000 148.113157 -80.154506 153.699524
8.633000 6.343373 14.911008 3.955306 4.786407 11.084530 0.000000 0.000000 0.000000 -0.762350 16.423312 -122.867245 2.079903 9.030545 25.890944 41.369211 26.176790 171.728342 1.873649 8.596096 24.540894 0.000000 0.000000 0.000000 3.058812 -17.973019 -125.213251 -0.844937 -5.862775 16.386716 -35.204358 -2.247448 138.863166 -0.243820 3.177561 -8.773375 4.152803 -0.059242 40.140574 -4.773522 1.160900 13.427246 -7.680981 0.961575 -4.352645 5.183051 13.605353 1.525926 -17.170573 16.766377 -22.505653 -6.805388 9.453832 -4.974740 0.000000 0.000000 0.000000 -11.804774 -47.805160 -75.380933 16.808369 -26.604373 4.001224 58.495766 -33.802791 33.152780 0.000000 0.000000 0.000000 -7.125000 0.000000 0.000000 13.687008 -20.154690 17.965338 0.000000 0.000000 0.000000 2.275106 -48.390531 26.672367 -25.990536 -37.199100 -8.882080 -42.430566 58.497844 63.117907 0.000000 0.000000 0.000000 7.125000 0.000000 0.000000 146.044041 -79.215664 152.547754
8.636175 6.485475 14.904540 3.454245 3.722923 11.373081 0.000000 0.000000 0.000000 -0.421937 17.474199 -122.159815 2.145878 9.163456 26.308066 41.261349 25.632921 171.448003 1.360534 7.377679 20.841786 0.000000 0.000000 0.000000 2.320724 -16.887587 -124.151730 -0.972315 -6.276490 17.589028 -35.573622 -2.919664 140.693266 -0.242135 3.166499 -8.742703 3.517683 0.339228 40.196818 -4.714705 1.391395 13.462753 -7.366622 1.042212 -4.310675 4.683422 12.951354 1.343165 -16.497688 15.889582 -22.692902 -6.557564 8.996318 -5.214796 0.000000 0.000000 0.000000 -11.841520 -48.809944 -74.819100 16.096168 -25.650236 3.687775 58.723496 -34.557747 33.420827 0.000000 0.000000 0.000000 -7.125000 0.000000 0.000000 13.701608 -20.612179 18.047288 0.000000 0.000000 0.000000 2.303978 -49.670024 27.802788 -24.818083 -36.015711 -8.183450 -41.904458 58.277541 63.298323 0.000000 0.000000 0.000000 7.125000 0.000000 0.000000 145.023249 -79.138042 151.746166
8.643004 6.642510 14.889301 2.956449 2.576556 11.793317 0.000000 0.000000 0.000000 -0.282451 18.535880 -121.540780 2.251492 9.370996 26.963094 41.163559 25.195292 171.101516 0.935823 6.158283 17.245533 0.000000 0.000000 0.000000 1.604307 -15.695590 -123.184712 -1.131418 -6.754052 18.989412 -35.941235 -3.358969 142.526878 -0.284893 3.432051 -9.484068 2.775132 0.722649 40.207901 -4.692447 1.555380 13.415412 -7.012554 1.082319 -4.360128 3.958560 11.999437 1.167594 -15.376419 14.638311 -23.125947 -6.154103 8.336536 -5.622825 0.000000 0.000000 0.000000 -11.381473 -49.958902 -74.438293 15.324580 -24.595292 3.360414 59.189747 -36.238723 33.825335 0.000000 0.000000 0.000000 -7.125000 0.000000 0.000000 13.782875 -21.387849 18.262060 0.000000 0.000000 0.000000 2.562263 -51.017955 29.381842 -23.352357 -34.468359 -7.338197 -41.908443 57.684781 62.573572 0.000000 0.000000 0.000000 7.125000 0.000000 0.000000 144.726930 -79.757047 151.084780
8.659359 6.807748 14.867568 2.475296 1.634965 12.278745 0.000000 0.000000 0.000000 -0.167067 19.305765 -120.913053 2.385110 9.625620 27.772987 41.218711 25.284304 171.502661 0.921208 6.113412 17.114234 0.000000 0.000000 0.000000 0.972850 -14.828527 -122.233267 -1.317576 -7.268856 20.515067 -36.280524 -3.993528 144.324508 -0.317120 3.619512 -10.008630 2.170000 0.940765 40.181779 -4.701937 1.569363 13.314525 -6.711061 1.054391 -4.474071 3.015649 10.663769 1.065268 -13.615342 12.935270 -23.849777 -5.519654 7.420850 -6.226254 0.000000 0.000000 0.000000 -10.535763 -51.078407 -74.225809 14.583345 -23.561955 3.057822 59.672681 -38.298061 34.190733 0.000000 0.000000 0.000000 -7.125000 0.000000 0.000000 13.884378 -22.132168 18.498796 0.000000 0.000000 0.000000 2.712379 -52.345485 31.363600 -21.805139 -32.753248 -6.481394 -41.580225 56.207768 61.688190 0.000000 0.000000 0.000000 7.125000 0.000000 0.000000 143.449161 -80.561333 149.452098
